<svg width="25" height="24" viewBox="0 0 25 24" fill="none" xmlns="http://www.w3.org/2000/svg">
<path d="M12.3846 5.75807C8.99752 5.75807 6.19107 8.51614 6.19107 11.9516C6.19107 15.3871 8.94914 18.1452 12.3846 18.1452C15.8201 18.1452 18.5782 15.3387 18.5782 11.9516C18.5782 8.56452 15.7717 5.75807 12.3846 5.75807ZM12.3846 15.9194C10.2072 15.9194 8.41688 14.129 8.41688 11.9516C8.41688 9.7742 10.2072 7.98388 12.3846 7.98388C14.562 7.98388 16.3524 9.7742 16.3524 11.9516C16.3524 14.129 14.562 15.9194 12.3846 15.9194Z" fill="black"/>
<path d="M18.8201 7.01614C19.5951 7.01614 20.2233 6.38789 20.2233 5.61291C20.2233 4.83793 19.5951 4.20969 18.8201 4.20969C18.0451 4.20969 17.4169 4.83793 17.4169 5.61291C17.4169 6.38789 18.0451 7.01614 18.8201 7.01614Z" fill="black"/>
<path d="M22.4491 1.98387C21.1911 0.677419 19.4007 0 17.3685 0H7.40074C3.19106 0 0.384613 2.80645 0.384613 7.01613V16.9355C0.384613 19.0161 1.06203 20.8065 2.41687 22.1129C3.72332 23.371 5.46526 24 7.44913 24H17.3201C19.4007 24 21.1427 23.3226 22.4007 22.1129C23.7072 20.8548 24.3846 19.0645 24.3846 16.9839V7.01613C24.3846 4.98387 23.7072 3.24194 22.4491 1.98387ZM22.2556 16.9839C22.2556 18.4839 21.7233 19.6935 20.8524 20.5161C19.9814 21.3387 18.7717 21.7742 17.3201 21.7742H7.44913C5.99752 21.7742 4.78784 21.3387 3.91687 20.5161C3.0459 19.6452 2.61042 18.4355 2.61042 16.9355V7.01613C2.61042 5.56452 3.0459 4.35484 3.91687 3.48387C4.73945 2.66129 5.99752 2.22581 7.44913 2.22581H17.4169C18.8685 2.22581 20.0782 2.66129 20.9491 3.53226C21.7717 4.40323 22.2556 5.6129 22.2556 7.01613V16.9839Z" fill="black"/>
</svg>
