<svg width="24" height="24" viewBox="0 0 24 24" fill="none" xmlns="http://www.w3.org/2000/svg">
<path d="M6.54543 12C6.54543 13.4467 7.1201 14.8341 8.14302 15.857C9.16594 16.8799 10.5533 17.4546 11.9999 17.4546V6.54553C10.5533 6.54553 9.16594 7.1202 8.14302 8.14312C7.1201 9.16604 6.54543 10.5534 6.54543 12Z" fill="white"/>
<path d="M11.9999 0.000125116C9.62658 0.000125116 7.30651 0.703909 5.33313 2.02248C3.35975 3.34105 1.82169 5.21518 0.913446 7.40788C0.00519943 9.60058 -0.232439 12.0134 0.230581 14.3411C0.693601 16.6689 1.83648 18.8071 3.51471 20.4853C5.19293 22.1635 7.33111 23.3064 9.65887 23.7694C11.9866 24.2324 14.3994 23.9948 16.5921 23.0866C18.7848 22.1783 20.659 20.6402 21.9775 18.6669C23.2961 16.6935 23.9999 14.3734 23.9999 12.0001C24.0071 10.4222 23.7016 8.85851 23.1011 7.39935C22.5007 5.94019 21.617 4.61446 20.5013 3.49872C19.3855 2.38299 18.0598 1.49935 16.6006 0.898857C15.1415 0.298361 13.5778 -0.00709639 11.9999 0.000125116ZM2.18181 12.0001C2.19613 9.40055 3.23514 6.91158 5.0733 5.07342C6.91146 3.23526 9.40043 2.19625 11.9999 2.18193V6.54554C13.4466 6.54554 14.8339 7.12021 15.8569 8.14314C16.8798 9.16605 17.4545 10.5534 17.4545 12.0001C17.4545 13.4467 16.8798 14.8341 15.8569 15.857C14.8339 16.8799 13.4466 17.4546 11.9999 17.4546V21.8182C9.40043 21.8039 6.91146 20.7649 5.0733 18.9267C3.23514 17.0885 2.19613 14.5996 2.18181 12.0001Z" fill="white"/>
</svg>
