<svg width="25" height="24" viewBox="0 0 25 24" fill="none" xmlns="http://www.w3.org/2000/svg">
<path d="M12.6923 0C6.06414 0 0.692261 5.37188 0.692261 12C0.692261 18.6281 6.06414 24 12.6923 24C19.3204 24 24.6923 18.6281 24.6923 12C24.6923 5.37188 19.3204 0 12.6923 0ZM20.1829 19.4859C19.2079 20.4609 18.0782 21.225 16.8173 21.7547C15.5141 22.3078 14.1266 22.5844 12.6923 22.5844C11.2626 22.5844 9.87507 22.3031 8.56726 21.7547C7.30632 21.2203 6.17195 20.4563 5.20164 19.4859C4.22664 18.5109 3.46257 17.3813 2.93289 16.1203C2.37976 14.8172 2.09851 13.4297 2.09851 12C2.09851 10.5703 2.37976 9.18281 2.9282 7.875C3.46257 6.61406 4.22664 5.47969 5.19695 4.50937C6.17664 3.53437 7.30632 2.77031 8.56726 2.23594C9.87507 1.6875 11.2626 1.40625 12.6923 1.40625C14.1219 1.40625 15.5094 1.6875 16.8173 2.23594C18.0782 2.77031 19.2126 3.53438 20.1829 4.50469C21.1579 5.47969 21.9219 6.60937 22.4516 7.87031C23.0048 9.17344 23.2813 10.5609 23.2813 11.9953C23.2813 13.425 23.0001 14.8125 22.4516 16.1203C21.9173 17.3813 21.1532 18.5156 20.1829 19.4859Z" fill="black"/>
<path d="M9.33601 9.53437H6.99695V17.0203H9.33601V9.53437Z" fill="black"/>
<path d="M8.11731 6C7.25481 6 6.68762 6.55781 6.68762 7.29844C6.68762 8.025 7.23606 8.59687 8.0845 8.59687H8.10325C8.9845 8.59687 9.53293 8.02031 9.52825 7.29844C9.5095 6.55781 8.97981 6 8.11731 6Z" fill="black"/>
<path d="M15.725 9.46406C14.3844 9.46406 13.5454 10.1953 13.3907 10.7109V9.53437H10.761C10.7938 10.1578 10.761 17.0203 10.761 17.0203H13.3907V12.975C13.3907 12.7453 13.3813 12.5203 13.4469 12.3609C13.625 11.9109 14.0141 11.4422 14.7125 11.4422C15.6266 11.4422 16.0391 12.1359 16.0391 13.1484V17.0203H18.6922V12.8578C18.6922 10.5422 17.3891 9.46406 15.725 9.46406Z" fill="black"/>
</svg>
