<svg width="50" height="50" viewBox="0 0 50 50" fill="none" xmlns="http://www.w3.org/2000/svg">
<path d="M17.8912 34C17.2971 34 17 33.7259 17 33.1777V14.8223C17 14.2741 17.2971 14 17.8912 14H25.996C28.7873 14 30.8164 14.5896 32.0831 15.7688C33.361 16.948 34 18.8254 34 21.4011V26.5989C34 29.1746 33.361 31.052 32.0831 32.2312C30.8164 33.4104 28.7873 34 25.996 34H17.8912ZM18.7656 32.3708H25.996C27.5206 32.3708 28.7369 32.1846 29.6449 31.8123C30.5641 31.4399 31.2255 30.8348 31.6291 29.9969C32.0326 29.1487 32.2344 28.016 32.2344 26.5989V21.4011C32.2344 19.9943 32.0326 18.872 31.6291 18.0341C31.2255 17.1859 30.5641 16.5756 29.6449 16.2033C28.7369 15.8205 27.5206 15.6292 25.996 15.6292H18.7656V32.3708Z" fill="white"/>
<path d="M15 15L4 24.5L15 34" stroke="white" stroke-width="1.78261" stroke-linejoin="round"/>
<path d="M35 34L46 24.5L35 15" stroke="white" stroke-width="1.78261" stroke-linejoin="round"/>
<path d="M17.1449 24.8935C16.9092 24.6303 16.923 24.3808 17.1863 24.1451L25.9998 16.2539C26.263 16.0182 26.5125 16.032 26.7482 16.2952C26.8727 16.4343 26.9158 16.6373 26.8774 16.9043L24.4216 30.4721L24.2615 30.2933L32.2033 23.1826C32.4666 22.9469 32.716 22.9606 32.9517 23.2239C33.183 23.4821 33.167 23.7291 32.9037 23.9648L24.0902 31.856C23.827 32.0917 23.5797 32.0804 23.3485 31.8221C23.2195 31.6781 23.1764 31.4751 23.2192 31.213L25.6684 17.6378L25.8285 17.8166L17.8867 24.9274C17.6234 25.1631 17.3762 25.1518 17.1449 24.8935Z" fill="white"/>
<path d="M50 27.9904C50 40.146 38.8071 50 25 50C11.1929 50 0 40.146 0 27.9904C0 15.8348 11.1929 5.98093 25 5.98093C38.8071 5.98093 50 15.8348 50 27.9904ZM1.50528 20.6844C1.50528 32.108 12.0242 50 25 50C37.9758 50 48.4947 32.108 48.4947 20.6844C48.4947 9.26069 37.9758 -2.79867e-05 25 -2.79867e-05C12.0242 -2.79867e-05 1.50528 9.26069 1.50528 20.6844Z" fill="white"/>
</svg>
