<svg width="79" height="66" viewBox="0 0 79 66" fill="none" xmlns="http://www.w3.org/2000/svg">
<path d="M0 50V16H10.1506C13.6445 16 16.6786 16.7002 19.2531 18.1006C21.8275 19.4938 23.8245 21.4645 25.2441 24.0127C26.6564 26.5537 27.3625 29.5495 27.3625 33C27.3625 36.4072 26.6564 39.3849 25.2441 41.9331C23.8245 44.4741 21.8275 46.4556 19.2531 47.8777C16.6786 49.2926 13.6445 50 10.1506 50H0ZM10.1506 19.7357H4.30298V46.3185H10.1506C12.7618 46.3185 15.0089 45.741 16.8919 44.586C18.7823 43.431 20.235 41.8465 21.2501 39.8325C22.2725 37.8185 22.7837 35.541 22.7837 33C22.7837 30.4374 22.2725 28.1599 21.2501 26.1675C20.235 24.1679 18.7823 22.5979 16.8919 21.4573C15.0089 20.3096 12.7618 19.7357 10.1506 19.7357ZM36.3546 50V16H41.4851L58.697 43.3762L58.697 16H63V50H58.2005L40.6576 22.1405L40.6576 50H36.3546Z" fill="black"/>
<path fill-rule="evenodd" clip-rule="evenodd" d="M63.6659 56C58.7743 59.7627 52.6485 62 46 62C39.3516 62 33.2257 59.7627 28.3341 56H22.3357C28.3317 62.1681 36.7183 66 46 66C55.2817 66 63.6684 62.1681 69.6644 56H63.6659ZM72 45.8598V53.3248C76.3857 47.7223 79 40.6665 79 33C79 25.3335 76.3857 18.2777 72 12.6752V20.1402C73.9205 24.0156 75 28.3818 75 33C75 37.6183 73.9205 41.9844 72 45.8598ZM28.3341 10C33.2257 6.23726 39.3516 4 46 4C52.6485 4 58.7743 6.23726 63.6659 10H69.6644C63.6684 3.83189 55.2817 0 46 0C36.7183 0 28.3317 3.83189 22.3357 10H28.3341Z" fill="black"/>
</svg>
