<svg width="53" height="56" viewBox="0 0 53 56" fill="none" xmlns="http://www.w3.org/2000/svg">
<g clip-path="url(#clip0_130_95)">
<g clip-path="url(#clip1_130_95)">
<g clip-path="url(#clip2_130_95)">
<g clip-path="url(#clip3_130_95)">
<g clip-path="url(#clip4_130_95)">
<g clip-path="url(#clip5_130_95)">
<g clip-path="url(#clip6_130_95)">
<path d="M0 33.1501V10.696H6.57892C8.84341 10.696 10.8099 11.1584 12.4785 12.0833C14.1471 13.0034 15.4414 14.3049 16.3615 15.9877C17.2768 17.6658 17.7345 19.6443 17.7345 21.9231C17.7345 24.1732 17.2768 26.1398 16.3615 27.8226C15.4414 29.5007 14.1471 30.8094 12.4785 31.7485C10.8099 32.6829 8.84341 33.1501 6.57892 33.1501H0ZM6.57892 13.1631H2.78889V30.7188H6.57892C8.27133 30.7188 9.72775 30.3374 10.9482 29.5746C12.1734 28.8119 13.1149 27.7654 13.7728 26.4353C14.4355 25.1053 14.7668 23.6012 14.7668 21.9231C14.7668 20.2307 14.4355 18.7266 13.7728 17.4108C13.1149 16.0902 12.1734 15.0533 10.9482 14.3001C9.72775 13.5421 8.27133 13.1631 6.57892 13.1631ZM23.5626 33.1501V10.696H26.8878L38.2936 29.1813H38.0433V10.696H40.8322V33.1501H37.7215L25.9224 14.057H26.3515V33.1501H23.5626Z" fill="black"/>
</g>
</g>
<g clip-path="url(#clip7_130_95)">
<g clip-path="url(#clip8_130_95)">
<path d="M3.09066 43.6208C2.89529 43.6208 2.6864 43.6083 2.46398 43.5832C2.24055 43.5582 1.98357 43.5431 1.69302 43.5381C1.66296 43.5331 1.61938 43.5306 1.56227 43.5306C1.50416 43.5306 1.43503 43.5306 1.35488 43.5306C1.24968 43.5356 1.08086 43.5406 0.84842 43.5457C0.614978 43.5507 0.380535 43.5532 0.145089 43.5532H0.00231934L0.0849757 43.4254C0.0849757 43.4254 0.0990022 43.4254 0.127055 43.4254C0.154106 43.4254 0.172641 43.4279 0.18266 43.4329C0.28285 43.4329 0.37302 43.4339 0.453172 43.4359C0.533324 43.439 0.605961 43.4405 0.671084 43.4405C0.81135 43.4405 0.921558 43.4314 1.00171 43.4134C1.08186 43.3964 1.14698 43.3588 1.19708 43.3007C1.24717 43.2436 1.29126 43.1574 1.32933 43.0422C1.3664 42.927 1.41499 42.7742 1.4751 42.5838C1.55526 42.3183 1.6294 42.0463 1.69753 41.7678C1.76465 41.4903 1.82326 41.2223 1.87336 40.9638C1.92345 40.7063 1.96353 40.4758 1.99359 40.2725C2.02364 40.0701 2.04368 39.9163 2.0537 39.8111C2.05871 39.766 2.06522 39.7134 2.07324 39.6533C2.08025 39.5932 2.08376 39.5306 2.08376 39.4654C2.08376 39.3652 2.06873 39.2751 2.03867 39.1949C2.00861 39.1148 1.946 39.0672 1.85082 39.0522C1.81074 39.0421 1.74461 39.0356 1.65244 39.0326C1.55926 39.0306 1.46408 39.0281 1.3669 39.0251C1.26871 39.0231 1.18456 39.0221 1.11442 39.0221H0.941596L1.01674 38.9019L1.15199 38.8944C1.2071 38.8893 1.2622 38.8868 1.31731 38.8868C1.37241 38.8868 1.42501 38.8868 1.4751 38.8868C1.69051 38.8868 1.8974 38.8929 2.09578 38.9049C2.29315 38.9179 2.48451 38.9244 2.66986 38.9244H2.82766C3.04808 38.9244 3.2725 38.9094 3.50094 38.8793C3.72837 38.8493 3.94979 38.8342 4.16519 38.8342C4.42569 38.8342 4.67516 38.8778 4.91361 38.965C5.15106 39.0532 5.36747 39.23 5.56284 39.4955C5.72314 39.7109 5.83585 39.9238 5.90098 40.1342C5.9661 40.3446 5.99866 40.5525 5.99866 40.7579C5.99866 41.1035 5.92101 41.4201 5.76572 41.7077C5.61043 41.9962 5.4376 42.2282 5.24724 42.4035L4.67616 42.9295C4.37058 43.21 4.09656 43.3954 3.8541 43.4855C3.61064 43.5757 3.35616 43.6208 3.09066 43.6208ZM3.12072 43.3127C3.271 43.3127 3.42279 43.2912 3.57608 43.2481C3.72837 43.206 3.86963 43.1549 3.99988 43.0948C4.13013 43.0347 4.23032 42.9746 4.30045 42.9145C4.60603 42.669 4.83296 42.381 4.98124 42.0503C5.12852 41.7197 5.20215 41.3841 5.20215 41.0434C5.20215 40.6827 5.1185 40.3396 4.95118 40.014C4.78286 39.6884 4.53339 39.4279 4.20276 39.2325C4.10758 39.1774 4.0099 39.1333 3.90971 39.1002C3.80952 39.0682 3.70933 39.0522 3.60914 39.0522C3.46888 39.0522 3.34013 39.0882 3.22291 39.1604C3.10469 39.2335 3.008 39.3552 2.93286 39.5256C2.85271 39.7009 2.78108 39.9098 2.71796 40.1522C2.65584 40.3957 2.59973 40.6412 2.54964 40.8886C2.49954 41.1371 2.45846 41.3625 2.4264 41.5649C2.39334 41.7683 2.3693 41.9226 2.35427 42.0278C2.32421 42.1831 2.30918 42.3233 2.30918 42.4486C2.30918 42.7742 2.39084 42.9996 2.55415 43.1249C2.71645 43.2501 2.90531 43.3127 3.12072 43.3127ZM8.38067 40.4799C8.22036 40.4949 8.08761 40.4799 7.98241 40.4348C7.87721 40.3897 7.75949 40.3671 7.62924 40.3671C7.5541 40.3671 7.47145 40.3822 7.38128 40.4122L7.35873 40.3296C7.47896 40.2695 7.6077 40.2144 7.74496 40.1643C7.88322 40.1142 8.01497 40.0891 8.14021 40.0891C8.22036 40.0891 8.29801 40.0966 8.37315 40.1117C8.44829 40.1267 8.52594 40.1417 8.60609 40.1567C8.6612 40.1618 8.7163 40.1678 8.77141 40.1748C8.82651 40.1828 8.88412 40.1868 8.94423 40.1868C8.98932 40.1868 9.03791 40.1843 9.09001 40.1793C9.14311 40.1743 9.19721 40.1668 9.25231 40.1567L9.28237 40.2093C9.28237 40.2093 9.2433 40.2219 9.16515 40.2469C9.088 40.272 8.99433 40.302 8.88412 40.3371C8.77391 40.3722 8.67122 40.4032 8.57604 40.4303C8.48086 40.4583 8.41573 40.4748 8.38067 40.4799ZM8.04253 43.4329L7.4489 43.726C7.44389 43.7009 7.44139 43.6709 7.44139 43.6358C7.44139 43.6008 7.44139 43.5632 7.44139 43.5231C7.44139 43.3728 7.45241 43.19 7.47445 42.9746C7.4975 42.7592 7.52906 42.5372 7.56913 42.3088C7.60921 42.0814 7.65429 41.8725 7.70439 41.6821C7.80458 41.3415 7.91078 41.081 8.02299 40.9007C8.1362 40.7203 8.30552 40.5901 8.53095 40.5099C8.556 40.4999 8.60208 40.4834 8.66921 40.4603C8.73734 40.4383 8.80898 40.4122 8.88412 40.3822C8.95926 40.3521 9.02438 40.3271 9.07949 40.307C9.13459 40.287 9.16214 40.277 9.16214 40.277L9.1922 40.3446L8.98932 40.4348C8.89915 40.4748 8.80647 40.556 8.71129 40.6782C8.61611 40.8015 8.52845 40.9442 8.44829 41.1065C8.36814 41.2699 8.30552 41.4342 8.26044 41.5995C8.21034 41.7999 8.16776 42.0092 8.1327 42.2277C8.09763 42.4451 8.07008 42.649 8.05004 42.8393C8.16025 42.684 8.28048 42.5247 8.41072 42.3614C8.54097 42.1991 8.67723 42.0463 8.8195 41.903C8.96277 41.7608 9.10203 41.6446 9.23729 41.5544L9.2974 41.6295C9.17216 41.7047 9.04192 41.8249 8.90666 41.9902C8.77141 42.1555 8.64216 42.3334 8.51893 42.5237C8.3967 42.7141 8.293 42.8919 8.20784 43.0572C8.12268 43.2225 8.06757 43.3478 8.04253 43.4329ZM6.32177 43.4254L5.69809 43.726C5.69308 43.7009 5.69058 43.6709 5.69058 43.6358C5.69058 43.6008 5.69058 43.5632 5.69058 43.5231C5.69058 43.3728 5.7016 43.19 5.72364 42.9746C5.74668 42.7592 5.77824 42.5372 5.81832 42.3088C5.8584 42.0814 5.90348 41.8725 5.95358 41.6821C6.05376 41.3365 6.16998 41.075 6.30223 40.8976C6.43549 40.7193 6.61483 40.5901 6.84025 40.5099C6.89035 40.4949 6.95797 40.4708 7.04314 40.4378C7.1283 40.4057 7.21095 40.3772 7.29111 40.3521L7.32116 40.4348L7.10325 40.5475C7.01308 40.5976 6.91539 40.7228 6.8102 40.9232C6.705 41.1236 6.61733 41.349 6.5472 41.5995C6.50712 41.7598 6.46805 41.9276 6.42998 42.1029C6.39291 42.2783 6.36185 42.4486 6.3368 42.6139C6.3368 42.6239 6.34431 42.6289 6.35934 42.6289C6.38439 42.6289 6.41946 42.6189 6.46454 42.5989C6.50963 42.5788 6.53467 42.5663 6.53968 42.5613C6.59479 42.5262 6.66091 42.4796 6.73806 42.4215C6.81621 42.3644 6.89536 42.2983 6.97551 42.2232C7.14082 42.0729 7.29461 41.9035 7.43688 41.7152C7.58015 41.5278 7.66932 41.349 7.70439 41.1787C7.70439 41.1687 7.72042 41.1647 7.75248 41.1667C7.78554 41.1697 7.80207 41.1712 7.80207 41.1712C7.76701 41.3916 7.66932 41.6045 7.50902 41.8099C7.34871 42.0153 7.1809 42.2131 7.00557 42.4035C6.92541 42.4887 6.84376 42.5748 6.7606 42.662C6.67845 42.7502 6.6023 42.8443 6.53217 42.9445C6.46705 43.0297 6.41545 43.1123 6.37738 43.1925C6.34031 43.2726 6.32177 43.3503 6.32177 43.4254ZM9.72571 43.4329L9.12457 43.7335C9.15964 43.448 9.19821 43.1634 9.24029 42.8799C9.28337 42.5974 9.31994 42.3309 9.35 42.0804C9.37004 41.9301 9.38607 41.7898 9.39809 41.6596C9.41111 41.5293 9.41763 41.4091 9.41763 41.2989C9.41763 41.1636 9.4051 41.0459 9.38006 40.9457C9.36002 40.9507 9.33848 40.9608 9.31543 40.9758C9.29339 40.9908 9.27235 41.0033 9.25231 41.0134L9.14712 41.066C9.10704 41.086 9.087 41.096 9.087 41.096C9.06195 41.106 9.04943 41.0985 9.04943 41.0735V41.066C9.04943 41.0459 9.05795 41.0219 9.07498 40.9938C9.09301 40.9668 9.10704 40.9507 9.11706 40.9457C9.25732 40.8606 9.39108 40.7704 9.51832 40.6752C9.64556 40.58 9.7718 40.4849 9.89703 40.3897C9.93811 40.4398 9.96466 40.5199 9.97669 40.6301C9.98971 40.7403 9.99622 40.8681 9.99622 41.0134C9.99622 41.2488 9.98119 41.5178 9.95114 41.8204C9.92108 42.124 9.88601 42.4185 9.84594 42.7041C9.92609 42.6339 10.0213 42.5297 10.1315 42.3915C10.2417 42.2542 10.3529 42.1039 10.4651 41.9406C10.5783 41.7783 10.6785 41.6205 10.7657 41.4672C10.8538 41.3149 10.918 41.1937 10.958 41.1035C11.0131 40.9633 11.0642 40.829 11.1113 40.7008C11.1594 40.5735 11.217 40.4608 11.2842 40.3626C11.3523 40.2655 11.444 40.1968 11.5592 40.1567C11.5842 40.1467 11.6403 40.1277 11.7275 40.0996C11.8157 40.0726 11.9123 40.0425 12.0175 40.0095C12.1227 39.9774 12.2139 39.9489 12.2911 39.9238C12.3692 39.8988 12.4083 39.8862 12.4083 39.8862L12.4383 39.9539L12.2355 40.044C12.1854 40.0691 12.0912 40.1567 11.9529 40.307C11.8157 40.4573 11.6544 40.6462 11.469 40.8736C11.2837 41.102 11.0933 41.3465 10.8979 41.607C10.7026 41.8675 10.5182 42.1215 10.3449 42.3689C10.1716 42.6174 10.0288 42.8368 9.91657 43.0272C9.80336 43.2175 9.73974 43.3528 9.72571 43.4329ZM12.6247 40.1342C12.5646 40.1342 12.506 40.1252 12.4489 40.1072C12.3907 40.0901 12.3266 40.0641 12.2565 40.029L12.5721 39.6082C12.6122 39.6282 12.6673 39.6383 12.7374 39.6383C12.8476 39.6383 12.9729 39.6142 13.1131 39.5661C13.2534 39.519 13.3811 39.4554 13.4963 39.3753C13.5364 39.3101 13.5815 39.2776 13.6316 39.2776C13.6617 39.2776 13.6767 39.2926 13.6767 39.3227C13.6767 39.3427 13.6617 39.3753 13.6316 39.4204C13.6015 39.4654 13.5454 39.524 13.4633 39.5962C13.3801 39.6693 13.2925 39.7445 13.2003 39.8216C13.1071 39.8998 13.028 39.9649 12.9628 40.017C12.8977 40.0701 12.8651 40.0966 12.8651 40.0966C12.8201 40.1067 12.779 40.1152 12.7419 40.1222C12.7038 40.1302 12.6648 40.1342 12.6247 40.1342ZM12.0386 43.4329L11.445 43.726C11.44 43.7009 11.4374 43.6719 11.4374 43.6388C11.4374 43.6068 11.4374 43.5732 11.4374 43.5381C11.4374 43.3828 11.449 43.1975 11.472 42.9821C11.4941 42.7667 11.5266 42.5438 11.5697 42.3133C11.6118 42.0829 11.6579 41.8725 11.708 41.6821C11.8081 41.3415 11.9184 41.081 12.0386 40.9007C12.1588 40.7203 12.3316 40.5901 12.5571 40.5099C12.5821 40.4999 12.6287 40.4834 12.6968 40.4603C12.764 40.4383 12.8351 40.4122 12.9102 40.3822C12.9854 40.3521 13.0505 40.3271 13.1056 40.307C13.1607 40.287 13.1883 40.277 13.1883 40.277L13.2183 40.3446L13.0154 40.4348C12.9253 40.4748 12.8326 40.556 12.7374 40.6782C12.6422 40.8015 12.5546 40.9442 12.4744 41.1065C12.3943 41.2699 12.3316 41.4342 12.2866 41.5995C12.2365 41.7999 12.1889 42.0092 12.1438 42.2277C12.0987 42.4451 12.0661 42.649 12.0461 42.8393C12.2064 42.6039 12.3933 42.3644 12.6067 42.121C12.8191 41.8785 13.028 41.6896 13.2333 41.5544L13.2859 41.6295C13.1607 41.7047 13.032 41.8249 12.8997 41.9902C12.7665 42.1555 12.6387 42.3334 12.5165 42.5237C12.3933 42.7141 12.2891 42.8919 12.2039 43.0572C12.1187 43.2225 12.0636 43.3478 12.0386 43.4329ZM15.6604 43.4329L15.0668 43.726C15.0568 43.4354 15.0793 43.1033 15.1344 42.7296C15.1895 42.3569 15.2712 41.9712 15.3794 41.5724C15.4866 41.1747 15.6078 40.7955 15.7431 40.4348C15.6629 40.4248 15.5818 40.4122 15.4996 40.3972C15.4165 40.3822 15.3323 40.3747 15.2472 40.3747C15.2121 40.3747 15.1735 40.3772 15.1314 40.3822C15.0884 40.3872 15.0468 40.3947 15.0067 40.4047L14.9766 40.3221L15.5026 40.1342C15.5327 40.1242 15.5643 40.1192 15.5973 40.1192C15.6294 40.1192 15.6629 40.1192 15.698 40.1192C15.7281 40.1192 15.7571 40.1192 15.7852 40.1192C15.8122 40.1192 15.8408 40.1217 15.8708 40.1267C16.0462 39.7259 16.229 39.3863 16.4194 39.1078C16.6097 38.8302 16.7976 38.6689 16.9829 38.6238L17.6818 38.451L17.7118 38.5036C17.4112 38.6439 17.1482 38.8643 16.9228 39.1649C16.6974 39.4654 16.5045 39.8036 16.3442 40.1793C16.4294 40.1843 16.5146 40.1853 16.5997 40.1823C16.6849 40.1803 16.775 40.1693 16.8702 40.1492L16.9078 40.2018L16.224 40.4573C16.1789 40.5775 16.1288 40.7368 16.0737 40.9352C16.0186 41.1326 15.9635 41.3465 15.9084 41.5769C15.8533 41.8074 15.8047 42.0338 15.7626 42.2562C15.7195 42.4796 15.688 42.6765 15.6679 42.8468C15.8283 42.6114 16.0161 42.3709 16.2315 42.1255C16.4469 41.88 16.6573 41.6896 16.8627 41.5544L16.9228 41.6295C16.7976 41.7047 16.6673 41.8249 16.5321 41.9902C16.3968 42.1555 16.2681 42.3334 16.1459 42.5237C16.0226 42.7141 15.9184 42.8919 15.8333 43.0572C15.7481 43.2225 15.6905 43.3478 15.6604 43.4329ZM13.9397 43.4254L13.316 43.726C13.311 43.7009 13.3085 43.6709 13.3085 43.6358C13.3085 43.6008 13.3085 43.5632 13.3085 43.5231C13.3085 43.3728 13.32 43.19 13.3431 42.9746C13.3651 42.7592 13.3962 42.5372 13.4362 42.3088C13.4763 42.0814 13.5214 41.8725 13.5715 41.6821C13.6717 41.3365 13.7884 41.075 13.9216 40.8976C14.0539 40.7193 14.2352 40.5901 14.4657 40.5099C14.5158 40.4949 14.5824 40.4698 14.6656 40.4348C14.7477 40.3997 14.8289 40.3696 14.909 40.3446L14.9391 40.4273L14.7512 40.5249C14.6911 40.555 14.625 40.6236 14.5528 40.7308C14.4797 40.839 14.4081 40.9698 14.3379 41.1231C14.2678 41.2754 14.2102 41.4342 14.1651 41.5995C14.0799 41.9351 14.0098 42.2732 13.9547 42.6139C13.9547 42.6239 13.9622 42.6289 13.9773 42.6289C14.0023 42.6289 14.0339 42.6189 14.0719 42.5989C14.109 42.5788 14.13 42.5663 14.135 42.5613C14.2603 42.4912 14.4081 42.3784 14.5784 42.2232C14.7387 42.0729 14.8955 41.9035 15.0488 41.7152C15.2011 41.5278 15.2922 41.349 15.3223 41.1787C15.3273 41.1687 15.3448 41.1647 15.3749 41.1667C15.405 41.1697 15.42 41.1712 15.42 41.1712C15.3849 41.3916 15.2887 41.6045 15.1314 41.8099C14.9731 42.0153 14.8063 42.2131 14.631 42.4035C14.5508 42.4887 14.4682 42.5748 14.383 42.662C14.2979 42.7502 14.2202 42.8443 14.1501 42.9445C14.085 43.0297 14.0339 43.1123 13.9968 43.1925C13.9587 43.2726 13.9397 43.3503 13.9397 43.4254ZM23.2874 43.6659C23.1772 43.4254 23.0469 43.1609 22.8966 42.8724C22.7463 42.5848 22.5895 42.2893 22.4262 41.9857C22.2639 41.6831 22.1036 41.3891 21.9453 41.1035C21.788 40.818 21.6453 40.5575 21.517 40.3221C21.3898 40.0866 21.2911 39.8937 21.221 39.7435C21.2059 39.8086 21.1809 39.9223 21.1458 40.0846C21.1107 40.2479 21.0692 40.4398 21.0211 40.6602C20.974 40.8806 20.9264 41.1121 20.8783 41.3545C20.8312 41.598 20.7851 41.8349 20.74 42.0654C20.695 42.2958 20.6559 42.5022 20.6228 42.6845C20.5908 42.8679 20.5697 43.0071 20.5597 43.1023C20.5547 43.1674 20.5747 43.2225 20.6198 43.2676C20.6649 43.3127 20.716 43.3463 20.7731 43.3683C20.8312 43.3914 20.8753 43.4054 20.9054 43.4104C20.9905 43.4154 21.0982 43.4204 21.2285 43.4254C21.3587 43.4304 21.5015 43.4329 21.6568 43.4329C21.6818 43.4329 21.6943 43.4405 21.6943 43.4555C21.6943 43.4755 21.6818 43.4966 21.6568 43.5186C21.6317 43.5416 21.6067 43.5532 21.5816 43.5532C21.5365 43.5532 21.4414 43.5492 21.2961 43.5411C21.1508 43.5341 20.9865 43.5266 20.8032 43.5186C20.6208 43.5116 20.447 43.5081 20.2817 43.5081C20.2366 43.5081 20.1925 43.5091 20.1494 43.5111C20.1073 43.5141 20.0663 43.5156 20.0262 43.5156C19.941 43.5206 19.8143 43.5266 19.646 43.5336C19.4787 43.5416 19.2998 43.5457 19.1095 43.5457C19.0493 43.5457 18.9877 43.5442 18.9246 43.5411C18.8625 43.5391 18.7989 43.5381 18.7337 43.5381H18.7262C18.7062 43.5381 18.6897 43.5291 18.6766 43.5111C18.6646 43.4941 18.6586 43.478 18.6586 43.463C18.6586 43.4329 18.6761 43.4204 18.7112 43.4254C18.7964 43.4254 18.874 43.4264 18.9441 43.4284C19.0143 43.4314 19.0819 43.4329 19.147 43.4329C19.3424 43.4329 19.4987 43.4154 19.6159 43.3803C19.7341 43.3453 19.8318 43.2676 19.909 43.1474C19.9871 43.0272 20.0638 42.8393 20.1389 42.5838C20.2992 42.0378 20.4295 41.5133 20.5296 41.0104C20.6298 40.5064 20.725 39.9814 20.8152 39.4354C20.8302 39.3352 20.8137 39.2485 20.7656 39.1754C20.7185 39.1033 20.6599 39.0622 20.5898 39.0522C20.5397 39.0421 20.4545 39.0346 20.3343 39.0296C20.214 39.0246 20.0973 39.0206 19.9841 39.0176C19.8719 39.0156 19.7958 39.0171 19.7557 39.0221C19.7306 39.0221 19.7181 39.0146 19.7181 38.9996C19.7181 38.9795 19.7316 38.957 19.7587 38.9319C19.7867 38.9069 19.8108 38.8944 19.8308 38.8944C20.0062 38.8944 20.2075 38.8994 20.435 38.9094C20.6634 38.9194 20.8853 38.9244 21.1007 38.9244C21.2009 38.9244 21.2821 38.9194 21.3442 38.9094C21.4073 38.8994 21.4789 38.8944 21.5591 38.8944C21.6042 38.8944 21.6377 38.9054 21.6598 38.9274C21.6828 38.9505 21.7119 39.0096 21.7469 39.1048C21.782 39.1949 21.8431 39.3277 21.9303 39.503C22.0185 39.6783 22.1202 39.8747 22.2354 40.0921C22.3506 40.3105 22.4708 40.536 22.5961 40.7684C22.7213 41.0018 22.844 41.2248 22.9642 41.4372C23.0845 41.6506 23.1907 41.8359 23.2829 41.9932C23.376 42.1515 23.4452 42.2657 23.4902 42.3359C23.5203 42.2206 23.5554 42.0629 23.5954 41.8625C23.6355 41.6621 23.6781 41.4417 23.7232 41.2012C23.7683 40.9608 23.8109 40.7213 23.8509 40.4829C23.891 40.2454 23.9271 40.029 23.9591 39.8336C23.9922 39.6383 24.0137 39.488 24.0238 39.3828C24.0338 39.2976 24.0087 39.23 23.9486 39.1799C23.8885 39.1298 23.8119 39.0922 23.7187 39.0672C23.6265 39.0421 23.5338 39.0256 23.4407 39.0176C23.3485 39.0106 23.2748 39.0071 23.2197 39.0071H23.2122C23.1922 39.0071 23.1822 38.9996 23.1822 38.9845C23.1822 38.9645 23.1947 38.9429 23.2197 38.9199C23.2448 38.8979 23.2698 38.8868 23.2949 38.8868C23.355 38.8868 23.4762 38.8919 23.6586 38.9019C23.8419 38.9119 24.0363 38.9169 24.2417 38.9169C24.2968 38.9169 24.3494 38.9169 24.3995 38.9169C24.4496 38.9169 24.4997 38.9144 24.5497 38.9094C24.6249 38.9044 24.7351 38.9019 24.8804 38.9019C25.0256 38.9019 25.1845 38.9004 25.3568 38.8974C25.5301 38.8954 25.6994 38.8944 25.8647 38.8944C25.8848 38.8944 25.8948 38.9019 25.8948 38.9169C25.8948 38.9369 25.8823 38.962 25.8572 38.992C25.8322 39.0221 25.8071 39.0346 25.7821 39.0296C25.5015 39.0246 25.2811 39.0306 25.1208 39.0476C24.9605 39.0657 24.8388 39.1033 24.7556 39.1604C24.6735 39.2185 24.6109 39.3036 24.5678 39.4158C24.5257 39.5291 24.4796 39.6808 24.4295 39.8712C24.3945 39.9964 24.3554 40.1592 24.3123 40.3596C24.2702 40.56 24.2251 40.7779 24.177 41.0134C24.13 41.2488 24.0839 41.4792 24.0388 41.7047C23.9937 41.9301 23.9546 42.133 23.9216 42.3133C23.8895 42.4937 23.866 42.6314 23.8509 42.7266C23.886 42.7917 23.9035 42.8644 23.9035 42.9445C23.9035 43.0898 23.8484 43.21 23.7382 43.3052C23.6931 43.3403 23.638 43.3939 23.5729 43.466C23.5078 43.5391 23.4477 43.5993 23.3926 43.6463C23.3375 43.6944 23.3024 43.7009 23.2874 43.6659ZM27.5539 40.4648C27.4187 40.4648 27.2849 40.4498 27.1527 40.4197C27.0194 40.3897 26.8852 40.3747 26.7499 40.3747C26.6597 40.3747 26.5771 40.3847 26.5019 40.4047L26.4719 40.3221L26.9904 40.1342C27.0605 40.1192 27.1306 40.1117 27.2008 40.1117C27.2709 40.1117 27.3435 40.1167 27.4187 40.1267C27.4938 40.1367 27.5639 40.1467 27.6291 40.1567C27.6942 40.1618 27.7608 40.1678 27.829 40.1748C27.8961 40.1828 27.9647 40.1868 28.0348 40.1868C28.0899 40.1868 28.144 40.1828 28.1971 40.1748C28.2492 40.1678 28.3028 40.1593 28.358 40.1492L28.3955 40.2018L27.7418 40.4498C27.7067 40.4548 27.6742 40.4583 27.6441 40.4603C27.614 40.4633 27.584 40.4648 27.5539 40.4648ZM25.4349 43.4254L24.8037 43.726C24.7987 43.7009 24.7962 43.6719 24.7962 43.6388C24.7962 43.6068 24.7962 43.5732 24.7962 43.5381C24.7962 43.3828 24.8077 43.1975 24.8308 42.9821C24.8528 42.7667 24.8854 42.5438 24.9285 42.3133C24.9705 42.0829 25.0166 41.8725 25.0667 41.6821C25.1669 41.3365 25.2836 41.075 25.4169 40.8976C25.5491 40.7193 25.7305 40.5901 25.9609 40.5099C26.006 40.4949 26.0801 40.4673 26.1833 40.4273C26.2855 40.3872 26.3767 40.3546 26.4569 40.3296C26.4569 40.3296 26.4634 40.3421 26.4764 40.3671C26.4884 40.3922 26.4844 40.4097 26.4644 40.4197L26.2465 40.5249C26.1863 40.555 26.1202 40.6236 26.0481 40.7308C25.9749 40.839 25.9073 40.9698 25.8452 41.1231C25.7821 41.2754 25.728 41.4342 25.6829 41.5995C25.6428 41.7598 25.6042 41.9276 25.5672 42.1029C25.5291 42.2783 25.4975 42.4486 25.4725 42.6139C25.4725 42.6239 25.4775 42.6289 25.4875 42.6289C25.5126 42.6289 25.5451 42.6189 25.5852 42.5989C25.6253 42.5788 25.6478 42.5663 25.6528 42.5613C25.7079 42.5262 25.7746 42.4796 25.8527 42.4215C25.9299 42.3644 26.0085 42.2983 26.0887 42.2232C26.254 42.0729 26.4093 41.9035 26.5545 41.7152C26.6998 41.5278 26.7875 41.349 26.8175 41.1787C26.8175 41.1687 26.8341 41.1647 26.8671 41.1667C26.8992 41.1697 26.9152 41.1712 26.9152 41.1712C26.8802 41.3916 26.7825 41.6045 26.6222 41.8099C26.4619 42.0153 26.294 42.2131 26.1187 42.4035C26.0386 42.4887 25.9574 42.5748 25.8753 42.662C25.7921 42.7502 25.7155 42.8443 25.6453 42.9445C25.5802 43.0297 25.5291 43.1123 25.492 43.1925C25.454 43.2726 25.4349 43.3503 25.4349 43.4254ZM25.1268 45.1387C25.1168 45.1036 25.1193 45.0735 25.1344 45.0485L25.3974 45.026C25.4675 45.0209 25.5652 44.9774 25.6904 44.8952C25.8156 44.812 25.9409 44.7028 26.0661 44.5676C26.1914 44.4323 26.2865 44.2846 26.3517 44.1242C26.3917 44.0341 26.4208 43.9564 26.4388 43.8913C26.4559 43.8262 26.4734 43.746 26.4914 43.6509C26.5085 43.5557 26.532 43.4204 26.5621 43.2451C26.5921 43.0748 26.6272 42.8869 26.6673 42.6815C26.7073 42.4761 26.7489 42.2707 26.792 42.0654C26.8341 41.86 26.8751 41.6796 26.9152 41.5243C26.9854 41.2488 27.058 41.0509 27.1331 40.9307C27.2083 40.8105 27.3235 40.7253 27.4788 40.6752C27.5139 40.6652 27.584 40.6412 27.6892 40.6031C27.7944 40.566 27.9036 40.5259 28.0168 40.4829C28.129 40.4408 28.2102 40.4122 28.2603 40.3972C28.2603 40.3972 28.2668 40.4097 28.2798 40.4348C28.2918 40.4598 28.2878 40.4774 28.2678 40.4874L27.9522 40.6602C27.9021 40.6903 27.851 40.7253 27.7989 40.7654C27.7458 40.8055 27.7067 40.8506 27.6817 40.9007C27.5765 41.081 27.4988 41.2989 27.4487 41.5544C27.3986 41.8099 27.346 42.1154 27.2909 42.4711C27.2609 42.6465 27.2323 42.8193 27.2053 42.9896C27.1772 43.1599 27.1507 43.3177 27.1256 43.463C27.1006 43.6033 27.073 43.735 27.043 43.8582C27.0129 43.9805 26.9778 44.0817 26.9378 44.1618C26.9027 44.237 26.8401 44.3246 26.7499 44.4248C26.6597 44.525 26.5535 44.6252 26.4313 44.7254C26.3081 44.8256 26.1803 44.9122 26.0481 44.9854C25.9148 45.0575 25.7881 45.1011 25.6679 45.1161C25.6178 45.1211 25.5366 45.1276 25.4244 45.1357C25.3112 45.1427 25.212 45.1437 25.1268 45.1387ZM24.9465 45.304C24.7862 45.304 24.6459 45.2905 24.5257 45.2634C24.4055 45.2354 24.2802 45.1963 24.15 45.1462C24.0548 45.1161 24.0072 45.0735 24.0072 45.0184C24.0072 44.9884 24.0147 44.9558 24.0298 44.9208C24.0548 44.8657 24.0914 44.8055 24.1395 44.7404C24.1866 44.6753 24.2352 44.6102 24.2852 44.545C24.3253 44.5 24.3629 44.4549 24.398 44.4098C24.433 44.3647 24.4656 44.3221 24.4956 44.282C24.5558 44.2019 24.5958 44.1192 24.6159 44.0341L24.676 44.1543C24.5558 44.3346 24.4956 44.5025 24.4956 44.6578C24.4956 44.8181 24.5648 44.9498 24.703 45.053C24.8403 45.1552 25.0392 45.2038 25.2997 45.1988V45.2814C25.1744 45.2965 25.0567 45.304 24.9465 45.304ZM28.4782 43.4855L27.847 43.7936C27.9321 43.5331 28.0148 43.2576 28.095 42.9671C28.1751 42.6765 28.2467 42.3895 28.3099 42.1059C28.372 41.8234 28.4196 41.5579 28.4526 41.3094C28.4847 41.062 28.4957 40.8506 28.4857 40.6752C28.4356 40.6953 28.3645 40.7288 28.2723 40.7759C28.1791 40.824 28.11 40.8556 28.0649 40.8706L28.11 40.7203C28.1901 40.6903 28.2903 40.6452 28.4105 40.5851C28.5308 40.5249 28.6535 40.4583 28.7787 40.3852C28.904 40.313 29.0117 40.2469 29.1019 40.1868C29.1119 40.2169 29.1169 40.2569 29.1169 40.307C29.1169 40.4222 29.1009 40.5911 29.0688 40.8135C29.0357 41.0369 28.9942 41.2824 28.9441 41.5499C28.894 41.8184 28.8404 42.0864 28.7833 42.3539C28.7251 42.6224 28.6685 42.8594 28.6134 43.0647C28.8689 42.8794 29.0808 42.675 29.2491 42.4516C29.4165 42.2292 29.5592 41.9902 29.6774 41.7347C29.7947 41.4792 29.9059 41.2112 30.0111 40.9307C30.0812 40.7454 30.1729 40.6001 30.2861 40.4949C30.3983 40.3897 30.5346 40.3095 30.6949 40.2544C30.7199 40.2444 30.7665 40.2279 30.8346 40.2048C30.9018 40.1828 30.9729 40.1567 31.048 40.1267C31.1232 40.0966 31.1883 40.0716 31.2434 40.0515C31.2985 40.0315 31.3261 40.0215 31.3261 40.0215L31.3561 40.1117L31.1532 40.2018C31.003 40.267 30.8702 40.4007 30.755 40.6031C30.6398 40.8065 30.5421 41.0444 30.4619 41.3169C30.3818 41.5905 30.3192 41.871 30.2741 42.1585C30.229 42.4471 30.2039 42.7116 30.1989 42.952C30.2641 42.8418 30.3507 42.7166 30.4589 42.5763C30.5661 42.4361 30.6813 42.2968 30.8046 42.1585C30.9268 42.0213 31.047 41.8985 31.1653 41.7903C31.2825 41.6831 31.3812 41.6045 31.4613 41.5544L31.5139 41.6295C31.3536 41.7498 31.2033 41.896 31.0631 42.0684C30.9228 42.2417 30.7976 42.4185 30.6874 42.5989C30.5771 42.7792 30.486 42.943 30.4138 43.0903C30.3407 43.2386 30.2916 43.3503 30.2666 43.4254L29.6654 43.726C29.6504 43.6959 29.6429 43.6133 29.6429 43.478C29.6429 43.3678 29.6479 43.2386 29.6579 43.0903C29.6679 42.943 29.6794 42.7967 29.6925 42.6515C29.7045 42.5062 29.718 42.381 29.7331 42.2758C29.7481 42.1706 29.7606 42.1054 29.7706 42.0804C29.6754 42.2056 29.5627 42.3434 29.4325 42.4937C29.3022 42.6439 29.171 42.7877 29.0387 42.925C28.9055 43.0632 28.7888 43.1835 28.6886 43.2857C28.5884 43.3889 28.5183 43.4555 28.4782 43.4855ZM31.311 45.1612V45.1236C31.311 45.0936 31.3186 45.076 31.3336 45.071L31.5815 45.026C31.6517 45.0109 31.7494 44.9633 31.8746 44.8832C31.9998 44.803 32.1251 44.6968 32.2503 44.5646C32.3755 44.4313 32.4707 44.2846 32.5359 44.1242C32.5759 44.0341 32.6045 43.9564 32.6215 43.8913C32.6396 43.8262 32.6571 43.746 32.6741 43.6509C32.6922 43.5557 32.7162 43.4204 32.7463 43.2451C32.7913 42.9946 32.8374 42.7351 32.8845 42.4666C32.9326 42.1991 32.9892 41.9476 33.0543 41.7122C32.9441 41.8625 32.8239 42.0052 32.6936 42.1405C32.5634 42.2758 32.4357 42.411 32.3104 42.5463C32.1752 42.6865 32.0524 42.8303 31.9422 42.9776C31.832 43.1259 31.7444 43.2802 31.6792 43.4405L31.0105 43.7485C31.1157 43.488 31.2184 43.215 31.3186 42.9295C31.4187 42.6439 31.5099 42.3619 31.5921 42.0834C31.6752 41.8059 31.7403 41.5469 31.7874 41.3064C31.8355 41.066 31.8596 40.8581 31.8596 40.6827L31.8295 40.6978C31.7995 40.7128 31.7619 40.7278 31.7168 40.7429L31.6041 40.803C31.5891 40.808 31.5765 40.813 31.5665 40.818C31.5565 40.823 31.549 40.828 31.544 40.833C31.5139 40.833 31.4989 40.823 31.4989 40.803C31.5039 40.7829 31.5174 40.7589 31.5395 40.7308C31.5625 40.7038 31.5815 40.6877 31.5966 40.6827C31.6767 40.6427 31.7594 40.6011 31.8445 40.558C31.9297 40.5159 32.0124 40.4748 32.0925 40.4348C32.1777 40.3947 32.2588 40.3546 32.336 40.3145C32.4141 40.2745 32.4883 40.2294 32.5584 40.1793C32.5784 40.2194 32.5885 40.282 32.5885 40.3671C32.5885 40.5124 32.5609 40.7078 32.5058 40.9533C32.4507 41.1987 32.3806 41.4617 32.2954 41.7422C32.2102 42.0228 32.1251 42.2958 32.0399 42.5613C32.1551 42.4862 32.2754 42.3784 32.4006 42.2382C32.5258 42.0979 32.6471 41.9451 32.7643 41.7798C32.8825 41.6145 32.9877 41.4552 33.0799 41.3019C33.1731 41.1496 33.2397 41.0259 33.2798 40.9307C33.3799 40.7103 33.4937 40.5259 33.6209 40.3777C33.7491 40.2304 33.9009 40.1242 34.0763 40.0591C34.1013 40.049 34.1474 40.0325 34.2145 40.0095C34.2827 39.9874 34.3543 39.9614 34.4294 39.9313C34.5046 39.9013 34.5697 39.8762 34.6248 39.8562C34.6799 39.8361 34.7075 39.8261 34.7075 39.8261L34.745 39.8937L34.5346 39.9839C34.4144 40.034 34.2967 40.1402 34.1815 40.3025C34.0662 40.4658 33.9646 40.6462 33.8764 40.8435C33.7892 41.0419 33.7231 41.2238 33.678 41.3891C33.6429 41.5344 33.6089 41.6957 33.5758 41.873C33.5438 42.0513 33.5102 42.2507 33.4751 42.4711C33.4451 42.6465 33.416 42.8193 33.388 42.9896C33.3609 43.1599 33.3349 43.3177 33.3098 43.463C33.2848 43.6033 33.2572 43.7335 33.2272 43.8537C33.1971 43.974 33.162 44.0742 33.122 44.1543C33.0869 44.2294 33.0243 44.3186 32.9341 44.4218C32.8439 44.524 32.7372 44.6267 32.614 44.7299C32.4918 44.8321 32.364 44.9183 32.2308 44.9884C32.0985 45.0585 31.9723 45.0986 31.8521 45.1086C31.802 45.1136 31.7218 45.1211 31.6116 45.1312C31.5014 45.1412 31.4012 45.1512 31.311 45.1612ZM31.1382 45.2965C30.9478 45.2965 30.7825 45.2789 30.6423 45.2439C30.502 45.2088 30.3492 45.1587 30.1839 45.0936L30.1689 45.056C30.1889 44.9909 30.239 44.9132 30.3192 44.8231C30.3993 44.7329 30.4845 44.6427 30.5746 44.5526C30.6748 44.4624 30.7625 44.3747 30.8376 44.2896C30.9178 44.2094 30.9779 44.1293 31.018 44.0491L31.0556 44.1618C30.8602 44.3772 30.7625 44.5751 30.7625 44.7554C30.7625 44.8907 30.8236 44.9999 30.9458 45.0831C31.0691 45.1652 31.2484 45.2038 31.4839 45.1988V45.2814C31.4187 45.2864 31.3586 45.2905 31.3035 45.2935C31.2484 45.2955 31.1933 45.2965 31.1382 45.2965ZM36.601 41.4342L36.5109 41.374C36.5209 41.324 36.5294 41.2779 36.5364 41.2358C36.5444 41.1927 36.5484 41.1511 36.5484 41.1111C36.5484 40.9507 36.5019 40.828 36.4087 40.7429C36.3165 40.6577 36.1953 40.6151 36.045 40.6151C35.9047 40.6151 35.7419 40.6577 35.5566 40.7429L35.519 40.6827C35.7544 40.5475 35.9734 40.4423 36.1757 40.3671C36.3791 40.292 36.5735 40.2544 36.7588 40.2544H36.7889C36.844 40.2544 36.8716 40.2845 36.8716 40.3446C36.8716 40.4097 36.859 40.4859 36.834 40.573C36.8089 40.6612 36.7814 40.7529 36.7513 40.8481C36.7313 40.8981 36.7138 40.9467 36.6987 40.9938C36.6837 41.0419 36.6712 41.091 36.6612 41.1411C36.6261 41.2663 36.606 41.364 36.601 41.4342ZM34.9629 43.6584C34.8127 43.6584 34.6724 43.6358 34.5421 43.5907C34.4119 43.5457 34.3192 43.4655 34.2641 43.3503C34.2291 43.2802 34.205 43.1985 34.192 43.1053C34.18 43.0131 34.174 42.917 34.174 42.8168C34.174 42.6364 34.1925 42.4446 34.2296 42.2412C34.2676 42.0388 34.3117 41.8525 34.3618 41.6821C34.467 41.3415 34.5847 41.081 34.715 40.9007C34.8452 40.7203 35.0231 40.5901 35.2485 40.5099C35.2835 40.4999 35.3397 40.4799 35.4168 40.4498C35.4949 40.4197 35.5751 40.3882 35.6573 40.3551C35.7404 40.3231 35.807 40.2995 35.8571 40.2845L35.8647 40.3747L35.4213 40.6151C35.3562 40.6502 35.2886 40.7288 35.2184 40.8511C35.1483 40.9743 35.0832 41.1211 35.0231 41.2914C34.9629 41.4617 34.9078 41.637 34.8577 41.8174L35.3311 41.592C35.3913 41.5769 35.4564 41.5694 35.5265 41.5694C35.5916 41.5694 35.6553 41.5744 35.7174 41.5844C35.7805 41.5945 35.8446 41.6045 35.9097 41.6145C36.025 41.6295 36.1427 41.637 36.2629 41.637C36.313 41.637 36.3641 41.6345 36.4162 41.6295C36.4693 41.6245 36.5209 41.617 36.571 41.607L36.601 41.6596L35.9022 42.0052C35.8722 42.0103 35.8431 42.0138 35.8151 42.0158C35.788 42.0188 35.7594 42.0203 35.7294 42.0203C35.6092 42.0203 35.4874 42.0052 35.3642 41.9752C35.242 41.9451 35.1207 41.9301 35.0005 41.9301C34.9705 41.9301 34.9414 41.9301 34.9133 41.9301C34.8863 41.9301 34.8577 41.9351 34.8277 41.9451C34.8026 42.0654 34.7811 42.1816 34.7631 42.2938C34.746 42.407 34.7375 42.5137 34.7375 42.6139C34.7375 42.7692 34.7601 42.8969 34.8051 42.9971C34.8703 43.1374 34.9654 43.2461 35.0907 43.3232C35.2159 43.4014 35.3537 43.4405 35.504 43.4405C35.7244 43.4405 35.9423 43.3503 36.1577 43.1699C36.3731 42.9896 36.5284 42.6991 36.6236 42.2983L36.7288 42.3734C36.6837 42.4987 36.6361 42.6349 36.586 42.7822C36.5359 42.9305 36.4908 43.1098 36.4508 43.3202C36.4007 43.4004 36.338 43.453 36.2629 43.478C36.1878 43.5031 36.1026 43.5156 36.0074 43.5156C35.9724 43.5156 35.9323 43.5141 35.8872 43.5111C35.8421 43.5091 35.797 43.5081 35.7519 43.5081C35.6818 43.5431 35.5726 43.5767 35.4243 43.6088C35.277 43.6418 35.1232 43.6584 34.9629 43.6584ZM37.8544 43.4555L37.2608 43.726C37.3059 43.4405 37.3625 43.1409 37.4306 42.8273C37.4977 42.5147 37.5564 42.2156 37.6064 41.9301C37.6465 41.7147 37.6806 41.5143 37.7086 41.329C37.7357 41.1436 37.7492 40.9883 37.7492 40.8631C37.7492 40.823 37.7492 40.7854 37.7492 40.7504C37.7492 40.7153 37.7442 40.6852 37.7342 40.6602C37.7342 40.6602 37.6856 40.6752 37.5884 40.7053C37.4902 40.7353 37.366 40.7955 37.2157 40.8856L37.2608 40.7353C37.356 40.6802 37.4677 40.6151 37.5959 40.54C37.7232 40.4648 37.8494 40.3882 37.9746 40.31C38.0999 40.2329 38.2026 40.1643 38.2827 40.1041C38.3078 40.1392 38.3243 40.1868 38.3323 40.2469C38.3393 40.307 38.3428 40.3772 38.3428 40.4573C38.3428 40.5926 38.3318 40.7489 38.3098 40.9262C38.2867 41.1045 38.2577 41.2964 38.2226 41.5018C38.2026 41.6421 38.1775 41.7823 38.1475 41.9226C38.1174 42.0629 38.0899 42.2056 38.0648 42.3509C38.155 42.1856 38.2702 42.0113 38.4105 41.8279C38.5507 41.6456 38.7035 41.4667 38.8688 41.2914C39.0341 41.1161 39.2035 40.9558 39.3768 40.8105C39.5491 40.6652 39.7129 40.5475 39.8682 40.4573C39.9884 40.3922 40.1287 40.3296 40.289 40.2695C40.4493 40.2093 40.5921 40.1542 40.7173 40.1041L40.7549 40.1718L40.6422 40.2169C40.522 40.267 40.4118 40.3656 40.3116 40.5129C40.2114 40.6612 40.1202 40.838 40.038 41.0434C39.9549 41.2488 39.8823 41.4642 39.8201 41.6896C39.757 41.9151 39.7054 42.129 39.6653 42.3314C39.6253 42.5347 39.5952 42.7041 39.5752 42.8393C39.7355 42.6039 39.9233 42.3634 40.1387 42.118C40.3541 41.8725 40.5645 41.6821 40.7699 41.5469L40.83 41.622C40.7399 41.6771 40.6287 41.7773 40.4964 41.9226C40.3632 42.0679 40.2289 42.2332 40.0936 42.4185C39.9584 42.6039 39.8407 42.7867 39.7405 42.9671C39.6403 43.1474 39.5827 43.3002 39.5676 43.4254L38.974 43.726C38.969 43.6959 38.9665 43.6644 38.9665 43.6313C38.9665 43.5993 38.9665 43.5657 38.9665 43.5306C38.9665 43.3503 38.9856 43.1384 39.0236 42.8949C39.0607 42.6525 39.1083 42.4035 39.1664 42.148C39.2235 41.8925 39.2886 41.6496 39.3618 41.4191C39.4339 41.1887 39.5025 40.9958 39.5676 40.8405C39.4675 40.9207 39.3487 41.0344 39.2115 41.1817C39.0732 41.33 38.9304 41.4993 38.7832 41.6896C38.6349 41.88 38.4946 42.0789 38.3624 42.2863C38.2291 42.4947 38.1174 42.7001 38.0272 42.9024C37.9371 43.1058 37.8795 43.2902 37.8544 43.4555Z" fill="black"/>
</g>
</g>
</g>
</g>
</g>
</g>
</g>
<path d="M24.0323 0C31.685 0 38.6204 3.07003 43.6744 8.04547H42.2024C37.4071 3.67625 31.0307 1.01239 24.0323 1.01239C17.0339 1.01239 10.6576 3.67625 5.86199 8.04547H4.38995C9.444 3.06981 16.3797 0 24.0323 0ZM52.0323 28C52.0323 35.2265 49.2948 41.8136 44.7999 46.7806V45.2356C48.6841 40.5606 51.0197 34.553 51.0197 28C51.0197 21.447 48.6841 15.4394 44.7999 10.7644V9.21938C49.2946 14.1864 52.0321 20.7737 52.0323 28ZM24.0323 56C16.3797 56 9.44422 52.93 4.38995 47.9545H5.86199C10.6573 52.3238 17.0337 54.9876 24.0323 54.9876C31.0307 54.9876 37.4071 52.3238 42.2024 47.9545H43.6744C38.6204 52.9302 31.6847 56 24.0323 56Z" fill="black"/>
<defs>
<clipPath id="clip0_130_95">
<rect width="40.8322" height="34.608" fill="white" transform="translate(0 10.696)"/>
</clipPath>
<clipPath id="clip1_130_95">
<rect width="40.8322" height="34.608" fill="white" transform="translate(0 10.696)"/>
</clipPath>
<clipPath id="clip2_130_95">
<rect width="40.8322" height="34.608" fill="white" transform="translate(0 10.696)"/>
</clipPath>
<clipPath id="clip3_130_95">
<rect width="40.8322" height="34.608" fill="white" transform="translate(0 10.696)"/>
</clipPath>
<clipPath id="clip4_130_95">
<rect width="40.8322" height="34.608" fill="white" transform="translate(0 10.696)"/>
</clipPath>
<clipPath id="clip5_130_95">
<rect width="40.8322" height="22.4542" fill="white" transform="translate(0 10.696)"/>
</clipPath>
<clipPath id="clip6_130_95">
<rect width="40.8322" height="22.4542" fill="white" transform="translate(0 10.696)"/>
</clipPath>
<clipPath id="clip7_130_95">
<rect width="40.8322" height="6.85296" fill="white" transform="translate(0 38.451)"/>
</clipPath>
<clipPath id="clip8_130_95">
<rect width="40.8322" height="6.85296" fill="white" transform="translate(0 38.451)"/>
</clipPath>
</defs>
</svg>
