<svg width="125" height="60" viewBox="0 0 125 60" fill="none" xmlns="http://www.w3.org/2000/svg">
<rect width="125" height="60" fill="white"/>
<path d="M21.408 34H18.48V27.82L18.78 27.52H19.38L19.68 27.22V21.34L19.98 21.04H20.58L20.88 20.74V16.72H23.808L26.4 20.668L26.208 21.04H25.752L25.62 21.292L29.46 27.148L29.268 27.52H28.812L28.68 27.772L29.424 28.9V27.82L29.724 27.52H30.324L30.624 27.22V21.34L30.924 21.04H31.524L31.824 20.74V16.72H34.752V20.74L34.452 21.04H33.852L33.552 21.34V27.22L33.252 27.52H32.652L32.352 27.82V34H29.424L25.416 27.892L25.62 27.52H26.064L26.196 27.268L22.608 21.82V27.22L22.308 27.52H21.708L21.408 27.82V34ZM39.9546 40.12C37.7946 40.12 35.8146 39.064 34.8066 37.3L37.4706 35.98C37.9506 36.916 38.9466 37.372 40.0746 37.372C41.3346 37.372 42.4146 36.808 42.9786 35.644C43.1706 35.236 43.3986 34.768 44.2386 34V33.34C43.3626 33.988 42.2466 34.36 40.9506 34.36C37.4106 34.36 34.9866 31.564 34.9866 27.82L35.2866 27.52H35.8866L36.1866 27.22C36.1866 23.44 38.6346 20.68 42.2106 20.68C43.6866 20.68 44.8866 21.148 45.7986 21.976V21.04H48.3306V27.22L48.0306 27.52H47.4306L47.1306 27.82V33.7L46.8306 34H46.2306L45.9306 34.3V34.624C45.9306 38.356 43.7466 40.12 39.9546 40.12ZM38.0466 27.82C38.1306 30.052 39.1866 31.768 41.4186 31.768C43.5786 31.768 44.5986 30.16 44.5986 27.82L44.8986 27.52H45.4986L45.7986 27.22C45.7986 24.856 44.7666 23.272 42.6426 23.272C40.4106 23.272 39.3306 25.012 39.2466 27.22L38.9466 27.52H38.3466L38.0466 27.82ZM50.2556 27.82L50.5556 27.52H51.1556L51.4556 27.22V21.04H54.3956V27.22L54.0956 27.52H53.4836L53.1956 27.82C53.2676 29.428 53.7356 31.648 56.1956 31.648C57.6356 31.648 59.2436 30.868 59.2436 27.82L59.5436 27.52H60.1436L60.4436 27.22V21.04H63.3476V27.22L63.0476 27.52H62.4476L62.1476 27.82V34H59.5916V32.56C58.6436 33.676 57.2276 34.372 55.3676 34.372C50.5796 34.372 50.2556 29.812 50.2556 28.276V27.82ZM67.8351 27.244L65.3151 21.04H68.3271L70.6911 27.1L70.4151 27.52H69.9471L69.7551 27.796L70.7391 30.316L71.8071 27.52H73.0071L75.4671 21.04H78.3591L75.8631 27.52H74.6631L72.1551 34H70.9551L68.7351 39.76H66.0231L68.1591 34H69.0591L69.2511 33.724L66.9111 27.94L67.1991 27.52H67.6431L67.8351 27.244ZM84.372 34.36C80.772 34.36 78.216 32.152 77.808 28.744L78.084 28.444H78.684L78.96 28.156V27.664C78.96 23.332 81.588 20.68 85.356 20.68C89.172 20.68 91.476 23.416 91.476 27.58V28.444H81.156L80.892 28.744C81.192 30.688 82.332 31.648 84.132 31.648C85.62 31.648 86.676 31 87.24 29.8L90.096 30.664C89.1 33.016 86.868 34.36 84.372 34.36ZM82.128 26.26H88.5C88.26 24.232 87.312 23.212 85.5 23.212C83.58 23.212 82.464 24.34 82.128 26.26ZM92.5419 27.82L92.8419 27.52H93.4419L93.7419 27.22V21.04H96.3219V22.48C97.2699 21.364 98.6859 20.668 100.558 20.668C105.334 20.668 105.658 25.228 105.658 26.764V27.22L105.358 27.52H104.758L104.458 27.82V34H101.53V27.82L101.83 27.52H102.442L102.73 27.22C102.658 25.612 102.19 23.392 99.8019 23.392C98.2779 23.392 96.6699 24.316 96.6699 27.22L96.3699 27.52H95.7699L95.4699 27.82V34H92.5419V27.82Z" fill="#1E1E1E"/>
<path d="M77.4 41.4C77.4 39.848 76.152 38.6 74.6 38.6C73.048 38.6 71.8 39.848 71.8 41.4C71.8 42.952 73.048 44.2 74.6 44.2C76.152 44.2 77.4 42.952 77.4 41.4ZM71 41.4C71 39.416 72.616 37.8 74.6 37.8C75.736 37.8 76.744 38.328 77.4 39.144V36.2H78.2V45H77.4V43.656C76.744 44.472 75.736 45 74.6 45C72.616 45 71 43.384 71 41.4ZM78.5938 41.4C78.5938 39.416 80.2098 37.8 82.1938 37.8C84.1778 37.8 85.7938 39.416 85.7938 41.4V42.2H79.5058C79.8418 43.352 80.9138 44.2 82.1938 44.2H85.7938V45H82.1938C80.2098 45 78.5938 43.384 78.5938 41.4ZM79.3938 41.4H84.9938C84.9938 39.848 83.7458 38.6 82.1938 38.6C80.6418 38.6 79.3938 39.848 79.3938 41.4ZM86.9875 39.4C86.9875 39.848 87.3395 40.2 87.7875 40.2H90.9875C92.3155 40.2 93.3875 41.272 93.3875 42.6C93.3875 43.928 92.3155 45 90.9875 45H87.7875C86.9075 45 86.1875 44.28 86.1875 43.4H86.9875C86.9875 43.848 87.3395 44.2 87.7875 44.2H90.9875C91.8675 44.2 92.5875 43.48 92.5875 42.6C92.5875 41.72 91.8675 41 90.9875 41H87.7875C86.9075 41 86.1875 40.28 86.1875 39.4C86.1875 38.52 86.9075 37.8 87.7875 37.8H91.7875C92.6675 37.8 93.3875 38.52 93.3875 39.4H92.5875C92.5875 38.952 92.2355 38.6 91.7875 38.6H87.7875C87.3395 38.6 86.9875 38.952 86.9875 39.4ZM93.7812 37V36.2H94.5813V37H93.7812ZM93.7812 45V37.8H94.5813V45H93.7812ZM94.9844 41.4C94.9844 39.416 96.6004 37.8 98.5844 37.8C99.7204 37.8 100.728 38.328 101.384 39.144V37.8H102.184V43.8C102.184 45.352 100.936 46.6 99.3844 46.6H95.7844V45.8H99.3844C100.488 45.8 101.384 44.904 101.384 43.8V43.656C100.728 44.472 99.7204 45 98.5844 45C96.6004 45 94.9844 43.384 94.9844 41.4ZM101.384 41.4C101.384 39.848 100.136 38.6 98.5844 38.6C97.0324 38.6 95.7844 39.848 95.7844 41.4C95.7844 42.952 97.0324 44.2 98.5844 44.2C100.136 44.2 101.384 42.952 101.384 41.4ZM102.578 45V37.8H103.378V39.144C104.034 38.328 105.042 37.8 106.178 37.8C108.162 37.8 109.778 39.416 109.778 41.4V45H108.978V41.4C108.978 39.848 107.73 38.6 106.178 38.6C104.626 38.6 103.378 39.848 103.378 41.4V45H102.578Z" fill="#1E1E1E"/>
<rect y="34" width="125" height="1" fill="white"/>
<rect y="27" width="125" height="1" fill="white"/>
<rect y="20" width="125" height="1" fill="white"/>
</svg>
